<svg width="210" height="43" viewBox="0 0 210 43" fill="none" xmlns="http://www.w3.org/2000/svg">
<path d="M42.121 22.2034C39.7818 35.581 32.8011 42.2711 21.1791 42.2711H13.8123L12.2593 42.1745L14.3634 32.9495H20.6939C26.9913 32.9495 30.8045 29.0116 32.1355 21.1351C32.2301 20.63 32.3068 20.1227 32.3663 19.6079L42.468 13.1958C42.5954 14.2061 42.6613 15.2686 42.6613 16.3851C42.6613 18.0472 42.4812 19.9874 42.121 22.2034Z" fill="#6E45B7"/>
<path d="M38.9612 4.77897L29.9025 10.5317C28.6398 9.60625 26.9175 9.14241 24.7388 9.14241H10.1206L10.1645 8.91049L11.8932 0H27.0605C29.1801 0 31.0933 0.265742 32.8064 0.799423C35.0821 1.51012 36.9977 2.68641 38.5591 4.33182C38.6976 4.4794 38.8294 4.62655 38.9612 4.77897Z" fill="#6E45B7"/>
<path d="M24.5175 17.0759L23.1753 26.2957H16.8999L13.8315 42.1748L13.8115 42.271H0L5.18566 34.5758L8.58832 17.0759H24.5175Z" fill="#00D8CD"/>
<path d="M54.262 30.4948H61.3704C65.2882 30.4948 69.0419 26.9848 69.7327 22.6758C70.4236 18.3664 67.7952 14.8564 63.8774 14.8564H56.769L54.262 30.4948ZM64.5738 10.5127C70.6715 10.5127 74.7622 15.9339 73.6873 22.6411C73.2081 25.6298 71.7889 28.375 69.8062 30.4948C69.5778 30.7382 69.3174 30.9815 69.0575 31.2244C66.7102 33.4487 63.7444 34.8042 60.7116 34.8042H49.6538L53.5536 10.478L64.5738 10.5127Z" fill="#6E45B7"/>
<path d="M73.3521 34.8042L77.2515 10.478H81.2004L77.301 34.8042H73.3521Z" fill="#6E45B7"/>
<path d="M84.7746 22.6411C84.0841 26.9506 86.7125 30.4601 90.6299 30.4601H97.7383L98.485 25.8033H91.3766L92.0726 21.4596H103.13L100.991 34.8038H89.9335C83.8357 34.8038 79.7502 29.3484 80.8256 22.6411C81.9006 15.9339 87.7356 10.478 93.8333 10.478H104.891L104.194 14.8217H93.1368C89.2191 14.8217 85.4654 18.3317 84.7746 22.6411Z" fill="#6E45B7"/>
<path d="M102.569 34.8042L106.469 10.478H110.418L106.518 34.8042H102.569Z" fill="#6E45B7"/>
<path d="M134.149 10.478L133.452 14.8221H117.308C116.203 14.8221 115.125 15.8298 114.93 17.046L114.568 19.3051H128.785L128.089 23.6488H113.84L112.052 34.8042H108.134L110.981 17.046C111.56 13.4319 114.687 10.478 117.973 10.478H134.149Z" fill="#00D8CD"/>
<path d="M131.797 34.8042L135.696 10.478H139.645L135.746 34.8042H131.797Z" fill="#00D8CD"/>
<path d="M163.335 10.5127L159.435 34.8389L156.021 31.5029L143.737 19.4439L141.269 34.8389H137.32L141.209 10.5821L144.623 13.9182L156.907 25.9772L159.391 10.478L163.335 10.5127Z" fill="#00D8CD"/>
<path d="M167.813 17.046L167.451 19.3051H181.668L180.972 23.6488H166.755L166.019 28.2362C165.825 29.4525 166.579 30.4601 167.685 30.4601H183.829L183.133 34.8042H166.989C163.703 34.8042 161.523 31.8503 162.102 28.2362L163.896 17.046C164.475 13.4315 167.602 10.478 170.888 10.478H187.032L186.336 14.8221H170.192C169.086 14.8221 168.008 15.8298 167.813 17.046Z" fill="#00D8CD"/>
<path d="M210 10.5117L199.483 22.7095L206.069 34.8379H201.077L196.419 26.2542L189.009 34.8379H184.017L194.459 22.7095L187.853 10.5117H192.845L197.524 19.1648L204.977 10.5117H209.937H210Z" fill="#00D8CD"/>
</svg>
