<svg width="238" height="48" viewBox="0 0 238 48" fill="none" xmlns="http://www.w3.org/2000/svg">
<path d="M48.1034 25.1585C45.4573 40.2906 37.5611 47.8581 24.4149 47.8581H16.0819L14.3252 47.7488L16.7053 37.3139H23.8661C30.9894 37.3139 35.3026 32.8597 36.8082 23.9501C36.9152 23.3787 37.0019 22.8049 37.0692 22.2226L48.4959 14.9695C48.64 16.1123 48.7145 17.3142 48.7145 18.5772C48.7145 20.4573 48.5108 22.6519 48.1034 25.1585Z" fill="white"/>
<path d="M44.5288 5.44883L34.282 11.9561C32.8538 10.9092 30.9056 10.3845 28.4411 10.3845H11.9058L11.9554 10.1222L13.9109 0.0430908H31.0673C33.4649 0.0430908 35.629 0.343685 37.5668 0.947359C40.141 1.75126 42.3078 3.08183 44.074 4.94303C44.2307 5.10997 44.3798 5.27642 44.5288 5.44883Z" fill="white"/>
<path d="M28.191 19.3587L26.6728 29.7876H19.5744L16.1035 47.7493L16.0809 47.8581H0.458008L6.32377 39.1537L10.1727 19.3587H28.191Z" fill="white"/>
<path d="M61.8371 34.5373H69.8778C74.3094 34.5373 78.5554 30.567 79.3368 25.6929C80.1182 20.8183 77.1452 16.8479 72.7136 16.8479H64.6729L61.8371 34.5373ZM73.5013 11.9346C80.3988 11.9346 85.0259 18.0667 83.81 25.6536C83.2679 29.0342 81.6626 32.1395 79.4199 34.5373C79.1616 34.8126 78.867 35.0879 78.573 35.3626C75.9179 37.8787 72.5631 39.412 69.1325 39.412H56.6245L61.0358 11.8953L73.5013 11.9346Z" fill="white"/>
<path d="M83.4307 39.4119L87.8415 11.8953H92.3084L87.8975 39.4119H83.4307Z" fill="white"/>
<path d="M96.3506 25.6536C95.5697 30.5283 98.5427 34.4981 102.974 34.4981H111.015L111.859 29.2305H103.819L104.606 24.3171H117.114L114.694 39.4115H102.186C95.2887 39.4115 90.6674 33.2406 91.8838 25.6536C93.0998 18.0667 99.7 11.8953 106.597 11.8953H119.105L118.317 16.8087H105.81C101.378 16.8087 97.1321 20.779 96.3506 25.6536Z" fill="white"/>
<path d="M116.479 39.4119L120.89 11.8953H125.357L120.946 39.4119H116.479Z" fill="white"/>
<path d="M152.201 11.8953L151.414 16.8092H133.152C131.902 16.8092 130.682 17.949 130.462 19.3247L130.052 21.88H146.134L145.346 26.7934H129.229L127.206 39.4119H122.775L125.995 19.3247C126.65 15.2367 130.187 11.8953 133.904 11.8953H152.201Z" fill="white"/>
<path d="M149.54 39.4119L153.951 11.8953H158.418L154.007 39.4119H149.54Z" fill="white"/>
<path d="M185.215 11.9346L180.804 39.4512L176.942 35.6776L163.047 22.0371L160.255 39.4512H155.789L160.187 12.0131L164.049 15.7867L177.944 29.4272L180.754 11.8953L185.215 11.9346Z" fill="white"/>
<path d="M190.281 19.3247L189.871 21.88H205.953L205.165 26.7934H189.084L188.251 31.9825C188.031 33.3583 188.885 34.4981 190.136 34.4981H208.397L207.61 39.4119H189.348C185.631 39.4119 183.165 36.0706 183.82 31.9825L185.849 19.3247C186.505 15.2362 190.042 11.8953 193.759 11.8953H212.02L211.233 16.8092H192.971C191.721 16.8092 190.501 17.949 190.281 19.3247Z" fill="white"/>
<path d="M238 11.9334L226.103 25.731L233.553 39.45H227.906L222.637 29.7405L214.255 39.45H208.608L220.421 25.731L212.948 11.9334H218.595L223.887 21.7214L232.318 11.9334H237.928H238Z" fill="white"/>
</svg>
