<?xml version="1.0" standalone="no"?>
<!DOCTYPE svg PUBLIC "-//W3C//DTD SVG 20010904//EN"
 "http://www.w3.org/TR/2001/REC-SVG-20010904/DTD/svg10.dtd">
<svg version="1.0" xmlns="http://www.w3.org/2000/svg"
 width="400.000000pt" height="400.000000pt" viewBox="0 0 400.000000 400.000000"
 preserveAspectRatio="xMidYMid meet">
<metadata>
Created by potrace 1.14, written by Peter Selinger 2001-2017
</metadata>
<g transform="translate(0.000000,400.000000) scale(0.100000,-0.100000)"
fill="#000000" stroke="none">
<path d="M1735 3984 c-439 -58 -865 -276 -1176 -600 -314 -328 -497 -728 -548
-1196 -8 -72 -6 -355 3 -413 3 -16 8 -52 11 -80 4 -27 11 -66 15 -85 5 -19 11
-48 14 -63 23 -133 123 -386 214 -542 267 -461 701 -797 1205 -935 84 -23 85
-23 207 -46 101 -19 447 -27 560 -13 218 27 447 96 646 194 116 57 276 155
343 210 139 114 249 222 321 315 19 24 41 50 47 58 33 35 147 218 191 307 76
151 141 329 168 456 39 189 44 247 40 479 -4 258 -13 330 -71 528 -72 252
-220 532 -380 721 -135 160 -338 333 -507 434 -202 121 -467 223 -658 253 -19
3 -70 11 -112 18 -104 17 -409 17 -533 0z m390 -308 c96 -6 106 -8 229 -32
292 -58 611 -230 832 -448 248 -245 420 -579 478 -931 20 -124 27 -307 14
-413 -4 -37 -10 -89 -13 -117 -15 -123 -75 -314 -146 -462 -244 -507 -731
-863 -1284 -938 -151 -21 -326 -21 -460 0 -16 3 -48 7 -70 10 -22 4 -83 18
-135 31 -331 89 -617 271 -855 544 -79 91 -190 267 -239 380 -15 36 -34 79
-41 95 -16 36 -59 180 -74 250 -42 187 -47 450 -13 645 20 109 73 293 108 370
145 317 341 553 617 738 251 170 569 274 861 281 44 1 83 4 85 6 2 3 7 3 10 1
3 -2 47 -7 96 -10z"/>
<path d="M1948 3365 c-2 -1 -37 -5 -78 -9 -443 -36 -855 -314 -1077 -726 -61
-114 -123 -305 -139 -430 l-5 -45 438 0 438 0 3 -156 2 -156 -440 1 -441 1 6
-55 c4 -30 8 -57 10 -60 2 -4 7 -22 10 -40 3 -18 16 -62 28 -99 l22 -66 400 0
400 0 2 -395 c2 -217 4 -399 7 -406 8 -20 301 -91 310 -75 2 3 4 199 5 434 0
235 2 431 5 435 2 4 71 7 153 7 l148 0 5 -438 c3 -240 7 -438 10 -439 21 -6
237 42 284 63 l23 11 0 401 0 402 403 0 404 0 23 74 c65 207 77 495 28 706
-14 60 -48 160 -57 166 -5 3 -500 6 -1099 6 -599 0 -1092 2 -1095 5 -15 15 99
173 187 260 370 363 948 405 1354 98 l66 -50 215 0 215 0 -28 38 c-52 70 -188
204 -268 264 -193 144 -422 236 -660 263 -54 7 -213 14 -217 10z m213 -1220
c1 -16 1 -268 0 -286 -1 -14 -21 -16 -156 -16 l-155 1 0 151 c0 83 2 154 4
156 10 9 306 4 307 -6z m885 -41 c3 -29 4 -98 2 -155 l-4 -104 -282 -1 -282
-1 0 152 c0 83 2 154 4 156 3 2 128 4 280 4 l275 0 7 -51z"/>
</g>
</svg>
