<?xml version="1.0" encoding="utf-8"?>
<!-- Generator: Adobe Illustrator 25.1.0, SVG Export Plug-In . SVG Version: 6.00 Build 0)  -->
<svg version="1.1" id="Calque_1" xmlns="http://www.w3.org/2000/svg" xmlns:xlink="http://www.w3.org/1999/xlink" x="0px" y="0px"
	 viewBox="0 0 151 48" style="enable-background:new 0 0 151 48;" xml:space="preserve">
<style type="text/css">
	.st0{fill:#1F2337;}
</style>
<path class="st0" d="M13.8,18.3h-0.1c2.1-4.1,6.3-6.9,11.2-6.9c3.2,0,6,1.2,8.2,3.1h0.1h5c-3-4.2-7.8-6.9-13.3-6.9
	C16.5,7.7,9.6,14,8.7,22.1l10.6,0v3.8H8.7l0,0c0.2,1.3,0.5,2.6,0.9,3.8h9.6v9.6c1.2,0.4,2.5,0.8,3.8,0.9V29.7h3.8v10.6
	c1.3-0.2,2.6-0.5,3.8-0.9v-9.6h9.6c0.7-1.8,1-3.7,1-5.7c0-2-0.4-3.9-1-5.7H38H13.8z M26.8,25.9H23v-3.8h3.8V25.9z M37.3,25.9h-6.7
	v-3.8h6.7c0.1,0.6,0.1,1.3,0.1,1.9C37.5,24.6,37.4,25.3,37.3,25.9z"/>
<path class="st0" d="M24.9,0c-13.2,0-24,10.7-24,24s10.7,24,24,24c13.2,0,24-10.7,24-24S38.1,0,24.9,0z M24.9,44.2
	c-11.1,0-20.2-9-20.2-20.2s9-20.2,20.2-20.2c11.1,0,20.2,9,20.2,20.2S36,44.2,24.9,44.2z"/>
<path class="st0" d="M70.7,21c-5.3-1.4-6.6-2-6.6-4v-0.1c0-1.5,1.4-2.7,3.9-2.7c2.6,0,5.3,1.1,8,3l3.5-5.1
	c-3.1-2.5-6.9-3.9-11.4-3.9c-6.3,0-10.7,3.7-10.7,9.2v0.1c0,6.1,4,7.8,10.2,9.4c5.1,1.3,6.2,2.2,6.2,3.9v0.1c0,1.8-1.7,2.9-4.4,2.9
	c-3.5,0-6.4-1.4-9.2-3.7l-4,4.8c3.7,3.3,8.4,4.9,13,4.9c6.6,0,11.3-3.4,11.3-9.5v-0.1C80.4,24.8,76.9,22.6,70.7,21z"/>
<path class="st0" d="M129.9,8.7v6.2h7v24.5h6.8V14.9h7V8.7H129.9z"/>
<path class="st0" d="M108.2,14.9h7v24.5h6.8V14.9h7V8.7h-20.7V14.9z"/>
<path class="st0" d="M99.8,16.2c-1.7-0.9-3.6-1.3-5.6-1.3c-6.8,0-12.4,5.6-12.4,12.4s5.6,12.4,12.4,12.4c2,0,3.9-0.5,5.6-1.3v1.3
	h6.8V14.9h-6.8V16.2z M94.2,32.9c-3.1,0-5.6-2.5-5.6-5.6c0-3.1,2.5-5.6,5.6-5.6c3.1,0,5.6,2.5,5.6,5.6
	C99.8,30.4,97.3,32.9,94.2,32.9z"/>
</svg>
